<svg width="20" height="20" viewBox="0 0 20 20" fill="none" xmlns="http://www.w3.org/2000/svg">
<path fill-rule="evenodd" clip-rule="evenodd" d="M10 0.833332C4.91668 0.833332 0.833344 4.91667 0.833344 10C0.833344 15.0833 4.91668 19.1667 10 19.1667C15.0833 19.1667 19.1667 15.0833 19.1667 10C19.1667 4.91667 15.0833 0.833332 10 0.833332ZM10 17.5C5.83334 17.5 2.50001 14.1667 2.50001 10C2.50001 5.83333 5.83334 2.5 10 2.5C14.1667 2.5 17.5 5.83333 17.5 10C17.5 14.1667 14.1667 17.5 10 17.5ZM13.0833 13.0833C13.4167 12.75 13.4167 12.25 13.0833 11.9167L10.8333 9.66667V5C10.8333 4.5 10.5 4.16667 10 4.16667C9.50001 4.16667 9.16668 4.5 9.16668 5V10C9.16668 10.25 9.25001 10.4167 9.41668 10.5833L11.9167 13.0833C12.0833 13.25 12.25 13.3333 12.5 13.3333C12.75 13.3333 12.9167 13.25 13.0833 13.0833Z" fill="black"/>
<mask id="mask0" mask-type="alpha" maskUnits="userSpaceOnUse" x="0" y="0" width="20" height="20">
<path fill-rule="evenodd" clip-rule="evenodd" d="M10 0.833332C4.91668 0.833332 0.833344 4.91667 0.833344 10C0.833344 15.0833 4.91668 19.1667 10 19.1667C15.0833 19.1667 19.1667 15.0833 19.1667 10C19.1667 4.91667 15.0833 0.833332 10 0.833332ZM10 17.5C5.83334 17.5 2.50001 14.1667 2.50001 10C2.50001 5.83333 5.83334 2.5 10 2.5C14.1667 2.5 17.5 5.83333 17.5 10C17.5 14.1667 14.1667 17.5 10 17.5ZM13.0833 13.0833C13.4167 12.75 13.4167 12.25 13.0833 11.9167L10.8333 9.66667V5C10.8333 4.5 10.5 4.16667 10 4.16667C9.50001 4.16667 9.16668 4.5 9.16668 5V10C9.16668 10.25 9.25001 10.4167 9.41668 10.5833L11.9167 13.0833C12.0833 13.25 12.25 13.3333 12.5 13.3333C12.75 13.3333 12.9167 13.25 13.0833 13.0833Z" fill="white"/>
</mask>
<g mask="url(#mask0)">
<rect width="20" height="20" fill="white"/>
<rect width="20" height="20" fill="white"/>
</g>
</svg>
