<svg width="20" height="20" viewBox="0 0 20 20" fill="none" xmlns="http://www.w3.org/2000/svg">
<path fill-rule="evenodd" clip-rule="evenodd" d="M15.8485 14.8939H16.0145C18.6702 14.308 20.413 11.6294 19.9151 9.03448C19.4171 6.6907 17.3423 5.01658 15.0186 5.01658H14.5206C13.2757 1.41721 9.3751 -0.759157 5.64046 0.245319C3.73165 0.747556 2.07181 1.91944 1.0759 3.67728C-0.00299145 5.3514 -0.251967 7.44406 0.245985 9.3693C0.826929 11.3783 2.07181 13.0524 3.89763 14.0569C4.31259 14.308 4.81054 14.1406 5.05952 13.722C5.3085 13.3035 5.14251 12.8013 4.72755 12.6338C3.31669 11.7968 2.32078 10.5412 1.90582 8.95077C1.49086 7.36035 1.73984 5.85364 2.56976 4.43063C3.31669 3.09133 4.56157 2.17056 6.05542 1.75203C9.12613 0.914969 12.2798 2.84021 13.1097 5.93735C13.1927 6.35588 13.5247 6.607 13.9397 6.607H15.0186C16.5954 6.607 17.9233 7.69518 18.2552 9.2856C18.6702 11.0434 17.5083 12.885 15.6825 13.2198C15.1845 13.3035 14.9356 13.8057 15.0186 14.2243C15.1016 14.6428 15.4335 14.8939 15.8485 14.8939ZM9.12613 13.3035H12.5288C12.8608 13.3035 13.0268 13.5546 13.1927 13.8057C13.3587 14.0569 13.3587 14.3917 13.1927 14.6428L9.87306 19.6652C9.70708 19.8326 9.4581 20 9.20912 20C9.04314 20 8.87715 19.9163 8.71117 19.8326C8.29621 19.5815 8.21322 19.0792 8.46219 18.6607L10.952 14.9776H7.54928C7.21731 14.9776 6.96834 14.8102 6.88535 14.5591C6.71936 14.308 6.71936 13.9731 6.88535 13.722L10.205 8.69965C10.454 8.28112 10.952 8.19741 11.3669 8.44853C11.7819 8.69965 11.8649 9.20189 11.6159 9.62042L9.12613 13.3035Z" fill="black"/>
<mask id="mask0" mask-type="alpha" maskUnits="userSpaceOnUse" x="0" y="0" width="20" height="20">
<path fill-rule="evenodd" clip-rule="evenodd" d="M15.8485 14.8939H16.0145C18.6702 14.308 20.413 11.6294 19.9151 9.03448C19.4171 6.6907 17.3423 5.01658 15.0186 5.01658H14.5206C13.2757 1.41721 9.3751 -0.759157 5.64046 0.245319C3.73165 0.747556 2.07181 1.91944 1.0759 3.67728C-0.00299145 5.3514 -0.251967 7.44406 0.245985 9.3693C0.826929 11.3783 2.07181 13.0524 3.89763 14.0569C4.31259 14.308 4.81054 14.1406 5.05952 13.722C5.3085 13.3035 5.14251 12.8013 4.72755 12.6338C3.31669 11.7968 2.32078 10.5412 1.90582 8.95077C1.49086 7.36035 1.73984 5.85364 2.56976 4.43063C3.31669 3.09133 4.56157 2.17056 6.05542 1.75203C9.12613 0.914969 12.2798 2.84021 13.1097 5.93735C13.1927 6.35588 13.5247 6.607 13.9397 6.607H15.0186C16.5954 6.607 17.9233 7.69518 18.2552 9.2856C18.6702 11.0434 17.5083 12.885 15.6825 13.2198C15.1845 13.3035 14.9356 13.8057 15.0186 14.2243C15.1016 14.6428 15.4335 14.8939 15.8485 14.8939ZM9.12613 13.3035H12.5288C12.8608 13.3035 13.0268 13.5546 13.1927 13.8057C13.3587 14.0569 13.3587 14.3917 13.1927 14.6428L9.87306 19.6652C9.70708 19.8326 9.4581 20 9.20912 20C9.04314 20 8.87715 19.9163 8.71117 19.8326C8.29621 19.5815 8.21322 19.0792 8.46219 18.6607L10.952 14.9776H7.54928C7.21731 14.9776 6.96834 14.8102 6.88535 14.5591C6.71936 14.308 6.71936 13.9731 6.88535 13.722L10.205 8.69965C10.454 8.28112 10.952 8.19741 11.3669 8.44853C11.7819 8.69965 11.8649 9.20189 11.6159 9.62042L9.12613 13.3035Z" fill="white"/>
</mask>
<g mask="url(#mask0)">
<rect width="20" height="20" fill="white"/>
</g>
</svg>
